# 3ds Max Wavefront OBJ Exporter v0.97b - (c)2007 guruware
# File Created: 28.01.2020 17:11:08

mtllib Hartman-Book1.mtl

#
# object Book2Texture
#

v  -111.5492 -30.6713 165.3034
v  -111.5492 -30.6713 26.3848
v  -100.8055 -30.6713 26.3848
v  -100.8055 -30.6713 165.3034
v  -89.8845 -30.6713 165.3034
v  -89.8845 -30.6713 26.3848
v  74.0966 -30.6713 26.3848
v  74.0966 -30.6713 165.3034
v  -111.5492 -30.6713 -112.5338
v  -100.8055 -30.6713 -112.5338
v  -89.8845 -30.6713 -112.5338
v  74.0966 -30.6713 -112.5338
v  -111.5492 30.6713 165.3034
v  -100.8055 30.6713 165.3034
v  -100.8055 30.6713 26.3848
v  -111.5492 30.6713 26.3848
v  -89.8845 30.6713 165.3034
v  74.0966 30.6713 165.3034
v  74.0966 30.6713 26.3848
v  -89.8845 30.6713 26.3848
v  -100.8055 30.6713 -112.5338
v  -111.5492 30.6713 -112.5338
v  74.0966 30.6713 -112.5338
v  -89.8845 30.6713 -112.5338
v  -109.8105 -22.0584 161.4093
v  -102.4654 -22.0584 161.4093
v  -100.8055 -10.2238 161.4093
v  -117.3233 -15.0843 161.4093
v  -88.2247 -22.0584 161.4093
v  70.2025 -22.0584 161.4093
v  70.2025 -10.2238 161.4093
v  -89.8845 -10.2238 161.4093
v  -100.8055 10.2238 161.4093
v  -117.3233 15.0842 161.4093
v  70.2025 10.2238 161.4093
v  -89.8845 10.2238 161.4093
v  -102.4654 22.0583 161.4093
v  -109.8105 22.0583 161.4093
v  70.2025 22.0583 161.4093
v  -88.2247 22.0583 161.4093
v  70.2025 -22.0583 26.3848
v  70.2025 -10.2238 26.3848
v  70.2025 -22.0583 -108.6397
v  70.2025 -10.2237 -108.6397
v  70.2025 10.2238 26.3848
v  70.2025 10.2238 -108.6397
v  70.2025 22.0583 26.3848
v  70.2025 22.0584 -108.6397
v  -88.2247 -22.0583 -108.6397
v  -89.8845 -10.2237 -108.6397
v  -102.4654 -22.0583 -108.6397
v  -109.8105 -22.0583 -108.6397
v  -117.3233 -15.0842 -108.6397
v  -100.8055 -10.2237 -108.6397
v  -89.8845 10.2238 -108.6397
v  -117.3233 15.0843 -108.6397
v  -100.8055 10.2238 -108.6397
v  -88.2247 22.0584 -108.6397
v  -109.8105 22.0584 -108.6397
v  -102.4654 22.0584 -108.6397
v  -123.2635 -19.7969 26.3848
v  -123.2635 -19.7968 -112.5338
v  -123.2635 -19.7969 165.3034
v  -123.2635 19.7969 26.3848
v  -123.2635 19.7969 -112.5338
v  -123.2635 19.7968 165.3034
v  -95.3450 -25.8719 26.3848
v  -95.3450 -25.8719 165.3034
v  -95.3450 -25.8719 -112.5338
v  -95.3450 25.8719 165.3034
v  -95.3450 25.8719 26.3848
v  -95.3450 25.8719 -112.5338
v  -95.3450 -15.8001 161.4093
v  -95.3450 -10.2238 161.4093
v  -95.3450 10.2238 161.4093
v  -95.3450 15.8001 161.4093
v  -95.3450 -15.8001 -108.6397
v  -95.3450 -10.2237 -108.6397
v  -95.3450 10.2238 -108.6397
v  -95.3450 15.8000 -108.6397
v  -102.4654 -22.0584 165.3034
v  -109.8105 -22.0584 165.3034
v  -95.3450 -15.8001 165.3034
v  -88.2247 -22.0584 165.3034
v  74.0966 -22.0584 165.3034
v  74.0966 -22.0583 26.3848
v  74.0966 -22.0583 -112.5338
v  -88.2247 -22.0583 -112.5338
v  -95.3450 -15.8001 -112.5338
v  -102.4654 -22.0583 -112.5338
v  -109.8105 -22.0583 -112.5338
v  -117.3233 -15.0842 -112.5338
v  -117.3233 15.0843 -112.5338
v  -109.8105 22.0584 -112.5338
v  -102.4654 22.0584 -112.5338
v  -95.3450 15.8001 -112.5338
v  -88.2247 22.0584 -112.5338
v  74.0966 22.0584 -112.5338
v  74.0966 22.0583 26.3848
v  74.0966 22.0583 165.3034
v  -88.2247 22.0583 165.3034
v  -95.3450 15.8001 165.3034
v  -102.4654 22.0583 165.3034
v  -109.8105 22.0583 165.3034
v  -117.3233 15.0842 165.3034
v  -117.3233 -15.0843 165.3034
# 106 vertices

vn -0.2809 -0.9597 -0.0000
vn 0.2691 -0.9631 0.0000
vn -0.2691 -0.9631 0.0000
vn 0.0000 -1.0000 -0.0000
vn -0.2809 0.9597 0.0000
vn 0.2691 0.9631 -0.0000
vn -0.2691 0.9631 -0.0000
vn 0.0000 1.0000 -0.0000
vn 0.0000 0.0000 1.0000
vn -0.0000 -0.0000 1.0000
vn 0.0000 -0.0000 1.0000
vn -0.0000 0.0000 1.0000
vn 1.0000 0.0000 -0.0000
vn 0.0000 0.0000 -1.0000
vn -0.0000 -0.0000 -1.0000
vn -0.0000 0.0000 -1.0000
vn -0.8773 -0.4800 -0.0000
vn -0.8773 0.4800 0.0000
vn -0.0000 -1.0000 0.0000
vn -0.0000 1.0000 -0.0000
vn 0.0000 -0.0000 -1.0000
vn -0.5184 0.8552 0.0000
vn 0.5184 0.8552 -0.0000
vn 0.5392 0.8422 -0.0000
vn 0.5392 -0.8422 0.0000
vn -0.5184 -0.8552 -0.0000
vn 0.5184 -0.8552 -0.0000
vn -0.0000 -1.0000 -0.0000
vn 0.0000 -1.0000 0.0000
# 29 vertex normals

vt 0.4392 0.0066 0.0000
vt 0.4401 0.3313 0.0000
vt 0.4150 0.3313 0.0000
vt 0.4141 0.0067 0.0000
vt 0.3886 0.0068 0.0000
vt 0.3895 0.3314 0.0000
vt 0.0063 0.3325 0.0000
vt 0.0054 0.0078 0.0000
vt 0.4410 0.6559 0.0000
vt 0.4159 0.6560 0.0000
vt 0.3904 0.6561 0.0000
vt 0.0072 0.6571 0.0000
vt 0.5578 0.0063 0.0000
vt 0.5829 0.0062 0.0000
vt 0.5838 0.3309 0.0000
vt 0.5587 0.3309 0.0000
vt 0.6084 0.0061 0.0000
vt 0.9916 0.0051 0.0000
vt 0.9925 0.3297 0.0000
vt 0.6093 0.3308 0.0000
vt 0.5847 0.6555 0.0000
vt 0.5596 0.6556 0.0000
vt 0.9934 0.6544 0.0000
vt 0.6102 0.6554 0.0000
vt 0.6139 0.8754 0.0000
vt 0.6283 0.8754 0.0000
vt 0.6316 0.8914 0.0000
vt 0.5992 0.8848 0.0000
vt 0.6563 0.8754 0.0000
vt 0.9670 0.8754 0.0000
vt 0.9670 0.8914 0.0000
vt 0.6530 0.8914 0.0000
vt 0.6316 0.9191 0.0000
vt 0.5992 0.9256 0.0000
vt 0.9670 0.9191 0.0000
vt 0.6530 0.9191 0.0000
vt 0.6283 0.9351 0.0000
vt 0.6139 0.9351 0.0000
vt 0.9670 0.9351 0.0000
vt 0.6563 0.9351 0.0000
vt 0.6407 0.8138 0.0000
vt 0.9061 0.8138 0.0000
vt 0.9061 0.8299 0.0000
vt 0.6407 0.8299 0.0000
vt 0.6392 0.7524 0.0000
vt 0.9046 0.7524 0.0000
vt 0.9046 0.7684 0.0000
vt 0.6392 0.7684 0.0000
vt 0.9061 0.8576 0.0000
vt 0.6407 0.8576 0.0000
vt 0.9046 0.7961 0.0000
vt 0.6392 0.7961 0.0000
vt 0.9061 0.8736 0.0000
vt 0.6407 0.8736 0.0000
vt 0.9046 0.8122 0.0000
vt 0.6392 0.8122 0.0000
vt 0.5992 0.9356 0.0000
vt 0.9100 0.9356 0.0000
vt 0.9132 0.9516 0.0000
vt 0.5992 0.9516 0.0000
vt 0.9379 0.9356 0.0000
vt 0.9523 0.9356 0.0000
vt 0.9670 0.9450 0.0000
vt 0.9346 0.9516 0.0000
vt 0.9132 0.9792 0.0000
vt 0.5992 0.9792 0.0000
vt 0.9670 0.9858 0.0000
vt 0.9346 0.9792 0.0000
vt 0.9100 0.9953 0.0000
vt 0.5992 0.9953 0.0000
vt 0.9523 0.9953 0.0000
vt 0.9379 0.9953 0.0000
vt 0.4675 0.3312 0.0000
vt 0.4684 0.6558 0.0000
vt 0.4666 0.0065 0.0000
vt 0.5313 0.3310 0.0000
vt 0.5322 0.6557 0.0000
vt 0.5304 0.0064 0.0000
vt 0.4022 0.3314 0.0000
vt 0.4013 0.0067 0.0000
vt 0.4031 0.6560 0.0000
vt 0.5956 0.0062 0.0000
vt 0.5965 0.3308 0.0000
vt 0.5975 0.6555 0.0000
vt 0.6423 0.8838 0.0000
vt 0.6423 0.8914 0.0000
vt 0.6423 0.9191 0.0000
vt 0.6423 0.9266 0.0000
vt 0.9239 0.9440 0.0000
vt 0.9239 0.9516 0.0000
vt 0.9239 0.9792 0.0000
vt 0.9239 0.9868 0.0000
vt 0.0427 0.8933 0.0000
vt 0.0638 0.8933 0.0000
vt 0.0605 0.9050 0.0000
vt 0.0461 0.9050 0.0000
vt 0.0745 0.8998 0.0000
vt 0.0745 0.9134 0.0000
vt 0.0852 0.8933 0.0000
vt 0.0884 0.9050 0.0000
vt 0.4069 0.8933 0.0000
vt 0.4069 0.9050 0.0000
vt 0.4007 0.7142 0.0000
vt 0.6732 0.7142 0.0000
vt 0.6732 0.7258 0.0000
vt 0.4007 0.7258 0.0000
vt 0.9457 0.7142 0.0000
vt 0.9457 0.7258 0.0000
vt 0.0264 0.7833 0.0000
vt 0.3481 0.7833 0.0000
vt 0.3449 0.7949 0.0000
vt 0.0264 0.7949 0.0000
vt 0.3588 0.7898 0.0000
vt 0.3588 0.8034 0.0000
vt 0.3695 0.7833 0.0000
vt 0.3728 0.7949 0.0000
vt 0.3906 0.7833 0.0000
vt 0.3872 0.7949 0.0000
vt 0.4136 0.7980 0.0000
vt 0.4019 0.8044 0.0000
vt 0.4136 0.8516 0.0000
vt 0.4019 0.8452 0.0000
vt 0.3906 0.8663 0.0000
vt 0.3872 0.8546 0.0000
vt 0.3695 0.8663 0.0000
vt 0.3728 0.8546 0.0000
vt 0.3588 0.8598 0.0000
vt 0.3588 0.8461 0.0000
vt 0.3481 0.8663 0.0000
vt 0.3449 0.8546 0.0000
vt 0.0264 0.8663 0.0000
vt 0.0264 0.8546 0.0000
vt 0.9413 0.7041 0.0000
vt 0.6688 0.7041 0.0000
vt 0.6688 0.6924 0.0000
vt 0.9413 0.6924 0.0000
vt 0.3963 0.7041 0.0000
vt 0.3963 0.6924 0.0000
vt 0.4069 0.9763 0.0000
vt 0.0852 0.9763 0.0000
vt 0.0884 0.9646 0.0000
vt 0.4069 0.9646 0.0000
vt 0.0745 0.9698 0.0000
vt 0.0745 0.9562 0.0000
vt 0.0638 0.9763 0.0000
vt 0.0605 0.9646 0.0000
vt 0.0427 0.9763 0.0000
vt 0.0461 0.9646 0.0000
vt 0.0197 0.9616 0.0000
vt 0.0314 0.9552 0.0000
vt 0.0197 0.9080 0.0000
vt 0.0314 0.9144 0.0000
vt 0.3669 0.6672 0.0000
vt 0.3525 0.6672 0.0000
vt 0.3525 0.6596 0.0000
vt 0.3669 0.6596 0.0000
vt 0.3385 0.6672 0.0000
vt 0.3385 0.6596 0.0000
vt 0.3245 0.6672 0.0000
vt 0.3245 0.6596 0.0000
vt 0.0061 0.6672 0.0000
vt 0.0137 0.6596 0.0000
vt 0.9337 0.6677 0.0000
vt 0.6612 0.6678 0.0000
vt 0.6612 0.6602 0.0000
vt 0.9261 0.6601 0.0000
vt 0.3887 0.6679 0.0000
vt 0.3963 0.6603 0.0000
vt 0.0060 0.6707 0.0000
vt 0.3244 0.6707 0.0000
vt 0.3244 0.6784 0.0000
vt 0.0136 0.6784 0.0000
vt 0.3384 0.6707 0.0000
vt 0.3384 0.6784 0.0000
vt 0.3523 0.6707 0.0000
vt 0.3523 0.6784 0.0000
vt 0.3667 0.6707 0.0000
vt 0.3667 0.6784 0.0000
vt 0.3815 0.6707 0.0000
vt 0.3815 0.6784 0.0000
vt 0.9848 0.6691 0.0000
vt 0.9440 0.6691 0.0000
vt 0.9440 0.6615 0.0000
vt 0.9848 0.6615 0.0000
vt 0.3808 0.7047 0.0000
vt 0.3662 0.7048 0.0000
vt 0.3662 0.6972 0.0000
vt 0.3808 0.6972 0.0000
vt 0.3520 0.7048 0.0000
vt 0.3520 0.6972 0.0000
vt 0.3382 0.7048 0.0000
vt 0.3382 0.6973 0.0000
vt 0.3244 0.7048 0.0000
vt 0.3244 0.6973 0.0000
vt 0.0098 0.7053 0.0000
vt 0.0174 0.6977 0.0000
vt 0.9290 0.6828 0.0000
vt 0.6598 0.6837 0.0000
vt 0.6597 0.6762 0.0000
vt 0.9214 0.6752 0.0000
vt 0.3905 0.6847 0.0000
vt 0.3980 0.6771 0.0000
vt 0.0106 0.6847 0.0000
vt 0.3252 0.6842 0.0000
vt 0.3252 0.6918 0.0000
vt 0.0182 0.6922 0.0000
vt 0.3390 0.6842 0.0000
vt 0.3390 0.6917 0.0000
vt 0.3528 0.6842 0.0000
vt 0.3528 0.6917 0.0000
vt 0.3671 0.6842 0.0000
vt 0.3671 0.6917 0.0000
vt 0.3816 0.6841 0.0000
vt 0.3816 0.6917 0.0000
vt 0.9450 0.6764 0.0000
vt 0.9858 0.6764 0.0000
vt 0.9858 0.6840 0.0000
vt 0.9450 0.6840 0.0000
vt 0.3816 0.6672 0.0000
vt 0.3816 0.6596 0.0000
# 220 texture coords

o Book2Texture
g Book2Texture
usemtl 02___Default
s off
f 1/1/1 2/2/1 3/3/2 4/4/2 
f 5/5/3 6/6/3 7/7/4 8/8/4 
f 2/2/1 9/9/1 10/10/2 3/3/2 
f 6/6/3 11/11/3 12/12/4 7/7/4 
f 13/13/5 14/14/6 15/15/6 16/16/5 
f 17/17/7 18/18/8 19/19/8 20/20/7 
f 16/16/5 15/15/6 21/21/6 22/22/5 
f 20/20/7 19/19/8 23/23/8 24/24/7 
f 25/25/9 26/26/9 27/27/9 28/28/9 
f 29/29/10 30/30/10 31/31/10 32/32/10 
f 28/28/11 27/27/11 33/33/11 34/34/11 
f 32/32/12 31/31/12 35/35/12 36/36/12 
f 34/34/11 33/33/11 37/37/11 38/38/11 
f 36/36/10 35/35/10 39/39/10 40/40/10 
f 30/41/13 41/42/13 42/43/13 31/44/13 
f 41/45/13 43/46/13 44/47/13 42/48/13 
f 31/44/13 42/43/13 45/49/13 35/50/13 
f 42/48/13 44/47/13 46/51/13 45/52/13 
f 35/50/13 45/49/13 47/53/13 39/54/13 
f 45/52/13 46/51/13 48/55/13 47/56/13 
f 43/57/14 49/58/14 50/59/14 44/60/14 
f 51/61/15 52/62/15 53/63/15 54/64/15 
f 44/60/14 50/59/14 55/65/14 46/66/14 
f 54/64/16 53/63/16 56/67/16 57/68/16 
f 46/66/14 55/65/14 58/69/14 48/70/14 
f 57/68/16 56/67/16 59/71/16 60/72/16 
f 9/9/1 2/2/1 61/73/17 62/74/17 
f 2/2/1 1/1/1 63/75/17 61/73/17 
f 62/74/17 61/73/17 64/76/18 65/77/18 
f 61/73/17 63/75/17 66/78/18 64/76/18 
f 65/77/18 64/76/18 16/16/5 22/22/5 
f 64/76/18 66/78/18 13/13/5 16/16/5 
f 3/3/2 67/79/19 68/80/19 4/4/2 
f 10/10/2 69/81/19 67/79/19 3/3/2 
f 14/14/6 70/82/20 71/83/20 15/15/6 
f 15/15/6 71/83/20 72/84/20 21/21/6 
f 26/26/9 73/85/9 74/86/9 27/27/9 
f 27/27/9 74/86/9 75/87/9 33/33/9 
f 33/33/10 75/87/10 76/88/10 37/37/10 
f 49/58/14 77/89/14 78/90/14 50/59/14 
f 50/59/14 78/90/14 79/91/14 55/65/14 
f 55/65/16 79/91/16 80/92/16 58/69/16 
f 67/79/19 6/6/3 5/5/3 68/80/19 
f 69/81/19 11/11/3 6/6/3 67/79/19 
f 70/82/20 17/17/7 20/20/7 71/83/20 
f 71/83/20 20/20/7 24/24/7 72/84/20 
f 73/85/9 29/29/9 32/32/9 74/86/9 
f 74/86/9 32/32/9 36/36/9 75/87/9 
f 75/87/11 36/36/11 40/40/11 76/88/11 
f 77/89/14 51/61/14 54/64/14 78/90/14 
f 78/90/14 54/64/14 57/68/14 79/91/14 
f 79/91/14 57/68/14 60/72/14 80/92/14 
f 1/93/11 4/94/11 81/95/11 82/96/11 
f 4/94/9 68/97/9 83/98/9 81/95/9 
f 68/97/9 5/99/9 84/100/9 83/98/9 
f 5/99/12 8/101/12 85/102/12 84/100/12 
f 8/103/13 7/104/13 86/105/13 85/106/13 
f 7/104/13 12/107/13 87/108/13 86/105/13 
f 12/109/21 11/110/21 88/111/21 87/112/21 
f 11/110/14 69/113/14 89/114/14 88/111/14 
f 69/113/14 10/115/14 90/116/14 89/114/14 
f 10/115/16 9/117/16 91/118/16 90/116/16 
f 9/117/21 62/119/21 92/120/21 91/118/21 
f 62/119/14 65/121/14 93/122/14 92/120/14 
f 65/121/15 22/123/15 94/124/15 93/122/15 
f 22/123/14 21/125/14 95/126/14 94/124/14 
f 21/125/14 72/127/14 96/128/14 95/126/14 
f 72/127/16 24/129/16 97/130/16 96/128/16 
f 24/129/16 23/131/16 98/132/16 97/130/16 
f 23/133/13 19/134/13 99/135/13 98/136/13 
f 19/134/13 18/137/13 100/138/13 99/135/13 
f 18/139/11 17/140/11 101/141/11 100/142/11 
f 17/140/11 70/143/11 102/144/11 101/141/11 
f 70/143/10 14/145/10 103/146/10 102/144/10 
f 14/145/10 13/147/10 104/148/10 103/146/10 
f 13/147/9 66/149/9 105/150/9 104/148/9 
f 66/149/11 63/151/11 106/152/11 105/150/11 
f 63/151/12 1/93/12 82/96/12 106/152/12 
f 82/153/20 81/154/20 26/155/20 25/156/20 
f 81/154/22 83/157/22 73/158/22 26/155/22 
f 83/157/23 84/159/23 29/160/23 73/158/23 
f 84/159/8 85/161/8 30/162/8 29/160/8 
f 85/163/8 86/164/8 41/165/8 30/166/8 
f 86/164/8 87/167/8 43/168/8 41/165/8 
f 87/169/20 88/170/20 49/171/20 43/172/20 
f 88/170/23 89/173/23 77/174/23 49/171/23 
f 89/173/22 90/175/22 51/176/22 77/174/22 
f 90/175/8 91/177/8 52/178/8 51/176/8 
f 91/177/24 92/179/24 53/180/24 52/178/24 
f 92/181/13 93/182/13 56/183/13 53/184/13 
f 93/185/25 94/186/25 59/187/25 56/188/25 
f 94/186/19 95/189/19 60/190/19 59/187/19 
f 95/189/26 96/191/26 80/192/26 60/190/26 
f 96/191/27 97/193/27 58/194/27 80/192/27 
f 97/193/4 98/195/4 48/196/4 58/194/4 
f 98/197/4 99/198/4 47/199/4 48/200/4 
f 99/198/4 100/201/4 39/202/4 47/199/4 
f 100/203/28 101/204/28 40/205/28 39/206/28 
f 101/204/27 102/207/27 76/208/27 40/205/27 
f 102/207/26 103/209/26 37/210/26 76/208/26 
f 103/209/29 104/211/29 38/212/29 37/210/29 
f 104/211/25 105/213/25 34/214/25 38/212/25 
f 105/215/13 106/216/13 28/217/13 34/218/13 
f 106/219/24 82/153/24 25/156/24 28/220/24 
# 104 polygons

